<?xml version="1.0" standalone="no"?>
<!DOCTYPE svg PUBLIC "-//W3C//DTD SVG 20010904//EN"
 "http://www.w3.org/TR/2001/REC-SVG-20010904/DTD/svg10.dtd">
<svg version="1.0" xmlns="http://www.w3.org/2000/svg"
 width="500.000000pt" height="500.000000pt" viewBox="0 0 500.000000 500.000000"
 preserveAspectRatio="xMidYMid meet">

<g transform="translate(0.000000,500.000000) scale(0.100000,-0.100000)"
fill="#000000" stroke="none">
<path d="M870 3719 c0 -5 24 -40 53 -77 29 -37 90 -114 135 -172 45 -58 92
-112 105 -121 12 -9 119 -82 237 -164 118 -81 221 -153 228 -160 16 -14 8 -34
-172 -468 -89 -215 -113 -283 -106 -297 5 -10 130 -118 277 -241 148 -123 310
-260 362 -304 l93 -80 -3 -245 c-4 -213 -2 -245 11 -245 12 0 16 23 22 120 9
149 11 361 3 383 -5 15 -106 101 -563 480 -197 164 -180 134 -137 238 20 49
51 116 69 149 18 33 33 67 33 75 1 17 38 115 93 245 21 50 45 106 53 126 l15
36 48 -8 c103 -17 348 -70 364 -79 9 -5 34 -9 56 -8 21 0 59 -6 84 -13 25 -7
54 -13 65 -14 23 0 32 -31 34 -121 1 -61 0 -62 -31 -74 -18 -8 -95 -40 -171
-72 l-139 -59 -59 37 c-33 20 -63 33 -66 30 -4 -3 7 -25 23 -49 l30 -42 174
-47 c96 -26 191 -52 211 -57 29 -9 41 -21 64 -63 16 -29 53 -96 83 -148 31
-52 89 -156 130 -230 71 -129 110 -191 100 -160 -3 8 -35 101 -72 206 -36 105
-66 198 -66 206 0 7 -22 41 -49 75 -27 34 -47 63 -45 66 2 2 46 -4 97 -15 75
-15 114 -31 207 -83 82 -45 116 -70 118 -84 2 -12 -3 -24 -11 -27 -8 -3 -67 9
-132 26 -64 17 -119 29 -121 27 -2 -2 41 -23 96 -47 55 -24 100 -46 100 -49 0
-3 -14 -94 -29 -201 l-29 -195 43 -65 c35 -50 55 -101 94 -225 27 -88 58 -203
70 -256 24 -105 44 -148 56 -117 17 43 -129 547 -182 627 l-35 53 27 177 c15
97 30 181 33 186 14 24 58 75 65 75 4 0 54 -33 112 -72 87 -61 105 -77 105
-99 0 -34 -31 -124 -60 -172 l-23 -39 17 -156 c9 -87 24 -224 33 -307 14 -135
24 -178 37 -164 3 3 -3 70 -13 149 -11 80 -27 216 -37 302 l-17 158 25 47 c14
27 36 76 48 111 15 41 27 61 36 58 7 -3 82 -53 166 -112 84 -59 182 -128 218
-153 36 -25 84 -60 108 -78 73 -55 125 -43 187 43 46 63 55 90 46 134 -5 26
-19 40 -73 74 -37 22 -100 64 -140 92 -40 27 -173 119 -295 203 l-221 153 -17
71 c-10 40 -22 79 -26 88 -5 11 2 60 21 134 24 99 27 121 16 136 -7 10 -62 55
-123 99 -78 56 -114 89 -121 109 -12 34 -25 44 -168 119 -77 41 -112 66 -124
87 -13 24 -57 51 -205 128 -103 53 -193 97 -200 97 -7 0 -18 -7 -25 -15 -7 -8
-19 -15 -26 -15 -8 0 -71 28 -140 62 -98 49 -129 60 -142 51 -9 -5 -36 -54
-58 -109 -23 -54 -47 -100 -52 -102 -6 -2 -53 25 -104 60 -51 36 -157 108
-236 162 l-143 98 -197 59 c-203 60 -232 66 -232 48z m254 -84 c54 -5 144 -35
150 -50 8 -22 -12 -28 -45 -15 -16 7 -32 10 -35 7 -3 -3 4 -23 15 -46 28 -54
27 -61 -14 -61 l-36 0 16 -30 c21 -40 19 -50 -9 -50 -18 0 -40 22 -96 96 -64
83 -71 98 -62 117 6 12 14 32 17 44 6 22 7 22 37 7 17 -9 44 -17 62 -19z m421
-225 c121 -83 222 -155 223 -161 2 -5 -3 -21 -12 -34 -9 -13 -16 -29 -16 -35
0 -6 -8 -30 -19 -53 -10 -23 -21 -50 -24 -60 -15 -42 -7 -47 -407 227 -93 64
-116 86 -89 86 7 0 9 10 5 26 -8 30 8 54 35 54 22 0 23 4 9 30 -14 26 -2 50
26 50 13 0 24 5 24 10 0 23 36 2 245 -140z m503 -5 c67 -32 122 -65 122 -72 0
-7 -22 -63 -48 -125 -27 -62 -59 -141 -71 -175 -15 -41 -29 -63 -39 -63 -22 0
-276 41 -281 45 -5 5 80 232 118 318 11 23 29 64 40 90 11 27 24 47 28 45 5
-2 63 -31 131 -63z m368 -116 c145 -77 174 -95 174 -114 0 -18 22 -33 118 -84
121 -64 155 -92 145 -116 -3 -8 0 -15 6 -15 6 0 11 8 11 17 0 13 3 14 12 5 9
-9 8 -16 -5 -30 -9 -10 -17 -26 -17 -35 0 -14 -234 -514 -249 -529 -3 -4 -58
8 -121 26 -63 18 -127 36 -142 40 -16 3 -28 13 -28 20 0 8 25 74 56 147 95
227 131 312 152 359 19 45 40 170 28 170 -3 0 -19 -29 -35 -65 -16 -36 -35
-65 -41 -65 -7 0 -10 -6 -7 -12 4 -12 -42 -128 -78 -198 -21 -40 -35 -26 -35
37 0 48 7 45 -157 79 -45 9 -87 21 -94 25 -13 7 -9 28 42 259 20 92 57 170 81
170 6 0 89 -41 184 -91z m563 -406 c36 -26 81 -62 100 -80 19 -18 40 -33 46
-33 7 0 18 -7 25 -15 10 -12 8 -21 -13 -49 -15 -18 -24 -36 -21 -39 6 -6 -22
-64 -70 -147 -18 -30 -59 -102 -91 -158 -32 -57 -63 -106 -70 -108 -11 -5
-190 87 -213 110 -10 10 -4 33 34 122 26 60 49 111 53 114 3 3 7 13 9 23 2 9
16 47 33 84 49 109 56 126 75 175 11 27 23 48 28 48 5 0 38 -21 75 -47z m-664
-243 c-18 -55 -67 -150 -78 -150 -32 1 -151 37 -155 48 -3 11 206 122 230 122
5 0 6 -9 3 -20z m807 -166 c18 -54 22 -94 10 -94 -4 0 -27 14 -50 31 -37 27
-40 33 -32 55 30 79 47 81 72 8z m378 -377 c135 -93 255 -180 268 -193 16 -17
21 -30 16 -49 -6 -23 -24 -36 -24 -17 0 5 -7 9 -15 9 -19 0 -19 -2 1 -22 20
-20 10 -44 -41 -100 l-32 -35 -34 18 c-38 19 -124 76 -339 227 -80 56 -197
136 -260 180 -63 43 -117 79 -119 81 -7 6 21 64 32 64 7 0 319 -213 385 -263
6 -5 12 -7 12 -4 0 3 -84 65 -187 137 -104 73 -192 137 -197 141 -13 11 13 69
31 69 7 0 37 -17 66 -38 29 -21 124 -87 212 -147 88 -59 183 -124 210 -143 28
-20 43 -28 35 -19 -16 17 -372 279 -458 337 -51 35 -62 56 -41 77 12 12 25 4
479 -310z m368 -249 c25 -25 14 -77 -28 -133 -48 -64 -90 -91 -120 -75 -11 6
-20 12 -20 15 0 2 22 27 50 55 30 31 56 70 67 100 18 51 30 59 51 38z"/>
<path d="M3690 1750 c0 -5 5 -10 10 -10 6 0 10 5 10 10 0 6 -4 10 -10 10 -5 0
-10 -4 -10 -10z"/>
<path d="M1731 2644 c0 -11 3 -14 6 -6 3 7 2 16 -1 19 -3 4 -6 -2 -5 -13z"/>
<path d="M2711 1254 c0 -11 3 -14 6 -6 3 7 2 16 -1 19 -3 4 -6 -2 -5 -13z"/>
<path d="M2701 1204 c0 -11 3 -14 6 -6 3 7 2 16 -1 19 -3 4 -6 -2 -5 -13z"/>
</g>
</svg>
